<svg width="204" height="195" viewBox="0 0 204 195" fill="none" xmlns="http://www.w3.org/2000/svg">
<path d="M158.273 59.2412C145.782 54.96 130.807 63.8008 128.889 76.5663C126.481 92.7154 144.757 102.375 160.036 93.071C163.266 91.0865 163.83 90.5302 166.621 86.2736C169.321 82.1557 169.698 81.2778 170.082 78.156C170.52 74.3425 169.692 70.2285 167.669 66.7203C166.211 64.1772 161.35 60.331 158.273 59.2412ZM160.329 72.0312C161.657 75.282 161.572 77.5414 159.984 80.4699C154.057 91.3362 136.942 89.8463 137.674 78.4857C138.334 67.7402 156.336 62.6019 160.329 72.0312Z" fill="#FAF7F5"/>
<path d="M104.721 25.2784C101.215 24.4369 95.4646 25.4977 91.8967 27.5917C89.1864 29.1893 88.5311 29.8844 85.8312 34.0022C83.0402 38.2588 82.7551 38.998 82.2235 42.7506C81.0612 51.1168 84.1931 59.1217 90.4478 63.6827C94.6695 66.7794 98.2377 67.7281 103.021 67.026C114.373 65.3354 121.661 53.5089 119.039 41.0754C117.825 35.3191 115.446 31.6438 110.791 28.3958C108.386 26.6877 106.327 25.6693 104.721 25.2784ZM108.848 38.7641C111.343 43.1764 111.319 48.3862 108.809 53.0254C102.76 64.0768 89.1 56.9129 91.1377 43.7625C91.9766 38.4254 96.321 33.9299 100.834 33.8439C103.837 33.8276 107.201 35.8993 108.848 38.7641Z" fill="#FAF7F5"/>
<path d="M163.973 107.557C156.847 105.137 150.229 105.695 144.028 109.371C140.199 111.559 139.772 112.007 137.224 115.893C134.948 119.363 134.406 120.595 134.138 122.933C133.683 126.67 134.478 130.63 136.424 134.154C137.837 136.667 138.536 137.324 142.491 139.915C146.678 142.658 147.158 142.84 151.523 143.385C168.937 145.534 181.99 129.481 173.964 115.955C171.644 111.987 167.993 108.934 163.973 107.557ZM166.76 120.958C168.328 125.16 167.119 128.932 163.268 131.964C157.431 136.606 147.374 135.309 143.971 129.441C140.6 123.728 145.074 116.803 153.207 115.253C158.757 114.193 165.271 116.939 166.76 120.958Z" fill="#FAF7F5"/>
<path d="M57.6586 40.3484C53.2712 39.1274 48.4713 39.7528 44.4443 42.1413C41.8412 43.6768 41.0484 44.4802 38.8035 47.904C36.4373 51.5129 36.1825 52.2058 35.6873 56.5114C33.5853 73.9189 50.1263 87.1374 64.2502 79.3923C66.7017 78.0881 67.357 77.393 69.9052 73.5066C72.3766 69.6359 72.8134 68.6654 73.1671 65.5899C74.0949 58.3929 71.5496 50.5078 66.6784 45.6627C63.7371 42.7434 61.6293 41.4947 57.6586 40.3484ZM62.4861 54.4911C66.1681 60.5413 64.668 69.0169 59.4294 71.9345C57.0549 73.2229 52.7687 72.862 50.1632 71.155C44.5802 67.497 42.6476 57.7645 46.3183 52.1661C47.9868 49.6214 51.9148 48.0941 55.218 48.7369C57.2549 49.0793 61.0134 52.071 62.4861 54.4911Z" fill="#FAF7F5"/>
<path d="M101.377 83.939C94.1739 81.5346 84.8189 82.615 78.0674 86.7241C74.2548 88.9885 74.1011 89.02 69.6895 88.4447C66.4652 87.9858 63.7244 88.1082 60.1584 88.8806C38.4854 93.5317 30.3686 119.301 45.3565 135.801C50.4826 141.475 59.5326 145.222 67.2169 144.965L70.7121 144.807L71.9625 148.074C74.6999 155.159 81.3896 161.592 88.7809 164.318C101.29 168.876 115.183 164.221 122.495 153.071C128.167 144.419 128.274 132.185 122.805 123.179C120.455 119.258 120.438 119.181 121.041 114.813C122.207 106.846 119.168 97.3812 113.579 91.6026C111.056 88.9577 104.87 85.1033 101.377 83.939ZM108.608 99.59C112.122 104.273 113.259 111.567 111.453 117.263C110.424 120.557 110.622 121.877 112.742 124.325C115.581 127.706 116.871 130.403 117.606 134.456C118.62 140.214 118.034 143.137 114.727 148.18C112.421 151.696 111.568 152.592 109.088 154.142C104.97 156.67 100.866 157.552 96.1308 156.963C92.4292 156.523 91.6403 156.204 87.8252 153.705C84.1962 151.327 83.4336 150.563 81.8516 148.005C80.8947 146.32 79.6908 143.084 79.1586 140.751C77.9141 135.041 76.8441 134.34 71.0167 135.416C68.634 135.905 65.1387 136.063 63.2879 135.842C60.357 135.443 59.3516 135.049 55.7227 132.672C52.1867 130.355 51.238 129.469 49.7187 127.018C47.1656 122.898 46.2611 118.8 46.829 114.079C47.2838 110.342 47.5689 109.603 50.0565 105.809C53.4097 100.796 55.8874 99.0464 61.4963 97.6943C65.5073 96.7505 68.4968 96.8572 72.7305 98.1097C75.8213 99.0765 77.1118 98.7314 79.7229 96.4735C84.1968 92.592 91.3409 90.7244 96.9298 91.9389C101.052 92.8539 106.107 96.0998 108.608 99.59Z" fill="#FAF7F5"/>
</svg>
