<svg width="283" height="206" viewBox="0 0 283 206" fill="none" xmlns="http://www.w3.org/2000/svg">
<g opacity="0.8" clip-path="url(#clip0_13:811)">
<path d="M25.9859 53.5808L35.3132 185.588C35.4808 187.952 36.4843 190.171 38.1331 191.822C39.7818 193.474 41.9608 194.443 44.2563 194.545L250.322 203.695C252.627 203.796 254.887 203.017 256.67 201.507C258.453 199.997 259.635 197.862 259.988 195.51L282.884 42.9127C283.097 41.4965 283.002 40.0492 282.607 38.6754C282.211 37.3016 281.524 36.0358 280.596 34.9695C279.668 33.9031 278.522 33.0629 277.241 32.5096C275.96 31.9562 274.575 31.7036 273.188 31.77L34.8835 43.2205C33.6347 43.2818 32.4104 43.6005 31.2828 44.1577C30.1551 44.7149 29.147 45.4994 28.3178 46.4649C27.4886 47.4304 26.8551 48.5574 26.4546 49.7795C26.0541 51.0016 25.8947 52.2941 25.9859 53.5808Z" fill="#FAF7F5"/>
<path d="M195.945 41.0788C203.68 38.6095 208.047 30.2554 205.697 22.4194C203.348 14.5834 195.173 10.2328 187.438 12.7021C179.702 15.1713 175.336 23.5254 177.685 31.3615C180.035 39.1975 188.21 43.5481 195.945 41.0788Z" fill="#FAF7F5"/>
<path d="M39.0744 126.061C36.0412 138.122 24.9899 145.592 14.4139 142.754C3.83784 139.916 -2.26916 127.829 0.764118 115.774C3.7974 103.718 14.8486 96.2425 25.4247 99.0804C36.0007 101.918 42.1178 114 39.0744 126.061Z" fill="#FAF7F5"/>
<path d="M254.443 128.277C253.992 128.279 253.545 128.18 253.134 127.986C252.724 127.792 252.359 127.509 252.065 127.155C251.771 126.801 251.555 126.385 251.433 125.937C251.31 125.489 251.283 125.018 251.354 124.558L265.414 30.8095C265.667 29.1224 265.554 27.3982 265.083 25.7618C264.611 24.1253 263.793 22.6175 262.688 21.3473C261.582 20.0772 260.217 19.0765 258.69 18.4178C257.164 17.759 255.515 17.4586 253.862 17.5383L212.66 19.5207C212.25 19.5402 211.84 19.4762 211.454 19.3324C211.068 19.1885 210.713 18.9676 210.41 18.6823C210.107 18.397 209.861 18.0528 209.687 17.6695C209.512 17.2861 209.413 16.8711 209.394 16.4481C209.375 16.025 209.437 15.6023 209.576 15.204C209.716 14.8057 209.93 14.4397 210.206 14.1267C210.483 13.8138 210.816 13.5601 211.188 13.3802C211.559 13.2003 211.962 13.0976 212.372 13.0781L253.574 11.101C256.154 10.9763 258.728 11.4453 261.111 12.474C263.493 13.5027 265.624 15.0653 267.349 17.0487C269.075 19.0321 270.351 21.3866 271.085 23.9416C271.82 26.4966 271.994 29.1882 271.596 31.8215L257.527 125.549C257.414 126.309 257.04 127.002 256.475 127.502C255.909 128.003 255.188 128.277 254.443 128.277Z" fill="#F6A6BF"/>
<path d="M208.149 191.598H208.013L35.0348 183.913C30.7691 183.723 26.7198 181.922 23.6562 178.853C20.5926 175.785 18.7283 171.661 18.4175 167.267L17.2952 151.325C17.2504 150.895 17.29 150.46 17.4116 150.046C17.5332 149.632 17.7343 149.247 18.0029 148.915C18.2715 148.583 18.6022 148.31 18.9752 148.113C19.3482 147.915 19.7559 147.797 20.174 147.765C20.5921 147.734 21.0121 147.79 21.409 147.929C21.8058 148.069 22.1714 148.289 22.484 148.577C22.7965 148.866 23.0496 149.216 23.2282 149.607C23.4068 149.999 23.5073 150.423 23.5235 150.856L24.6509 166.777C24.8481 169.594 26.0425 172.239 28.0066 174.207C29.9707 176.175 32.5675 177.329 35.3028 177.45L208.286 185.15C208.696 185.159 209.101 185.251 209.476 185.421C209.852 185.591 210.192 185.836 210.476 186.142C210.76 186.448 210.983 186.808 211.132 187.203C211.281 187.597 211.353 188.018 211.344 188.441C211.336 188.865 211.246 189.282 211.081 189.67C210.916 190.058 210.679 190.408 210.383 190.701C210.087 190.994 209.737 191.224 209.355 191.378C208.973 191.532 208.565 191.606 208.154 191.598H208.149Z" fill="#F6A6BF"/>
<path d="M15.489 84.7763C14.7006 84.7757 13.9417 84.4671 13.3648 83.9126C12.788 83.358 12.4361 82.5986 12.3799 81.7872L9.7763 44.9629C9.60774 42.5701 9.90518 40.1667 10.6511 37.8944C11.397 35.6221 12.5762 33.527 14.1193 31.7324C15.6624 29.9379 17.538 28.4804 19.6357 27.4457C21.7333 26.4111 24.0105 25.8203 26.333 25.7082L165.818 19.0101C166.236 18.9759 166.656 19.0287 167.053 19.1653C167.45 19.3019 167.817 19.5195 168.131 19.8052C168.445 20.0909 168.7 20.4388 168.882 20.8283C169.063 21.2178 169.166 21.6409 169.186 22.0725C169.206 22.5041 169.141 22.9354 168.996 23.3407C168.851 23.7461 168.628 24.1172 168.342 24.432C168.055 24.7468 167.71 24.9989 167.327 25.1734C166.943 25.3478 166.53 25.441 166.112 25.4474L26.6211 32.1508C25.1318 32.2213 23.6713 32.599 22.3258 33.2617C20.9804 33.9245 19.7773 34.8587 18.7876 36.0093C17.7979 37.1598 17.0418 38.5034 16.5638 39.9606C16.0858 41.4178 15.8957 42.9591 16.0046 44.4934L18.6031 81.3177C18.663 82.1698 18.3926 83.0116 17.8513 83.6582C17.3101 84.3047 16.5422 84.7031 15.7165 84.7659L15.489 84.7763Z" fill="#F6A6BF"/>
<path d="M189.822 30.6996C186.642 30.7147 183.54 29.6793 180.97 27.7448C178.4 25.8104 176.498 23.0783 175.541 19.9481C174.717 17.0195 174.743 13.9059 175.616 10.9924C176.489 8.07898 178.17 5.49345 180.452 3.55565C182.734 1.61785 185.516 0.412785 188.455 0.0895156C191.394 -0.233754 194.36 0.338947 196.986 1.73679C198.733 2.65681 200.283 3.92911 201.545 5.47838C202.806 7.02765 203.754 8.8224 204.332 10.7564C205.473 14.6766 205.06 18.9037 203.184 22.5104C201.309 26.1172 198.123 28.809 194.327 29.9953C192.868 30.4605 191.35 30.6978 189.822 30.6996ZM190.085 6.44741C189.177 6.44866 188.273 6.5911 187.406 6.86996C185.186 7.54376 183.317 9.099 182.208 11.1941C181.099 13.2892 180.841 15.7529 181.491 18.044C182.241 20.2771 183.802 22.1221 185.845 23.1893C187.889 24.2566 190.254 24.4626 192.442 23.7638C194.63 23.065 196.469 21.5162 197.57 19.4443C198.672 17.3725 198.95 14.94 198.346 12.6604C198.016 11.541 197.47 10.502 196.741 9.60561C196.012 8.70921 195.115 7.97391 194.104 7.44379C192.86 6.78848 191.483 6.44701 190.085 6.44741Z" fill="#F6A6BF"/>
<path d="M22.9671 136.609C21.3174 136.609 19.6745 136.392 18.0784 135.962C15.3356 135.21 12.7788 133.866 10.5773 132.017C8.37585 130.169 6.57989 127.86 5.30831 125.242C2.65423 119.785 2.01135 113.52 3.49925 107.61C4.98715 101.701 8.50453 96.5511 13.3971 93.1178C15.7459 91.4761 18.4055 90.3673 21.2003 89.8646C23.995 89.3619 26.8614 89.4768 29.6099 90.2017C40.8482 93.2273 47.3799 105.94 44.195 118.554C41.4549 129.337 32.5168 136.609 22.9671 136.609ZM24.7112 96.0287C21.9075 96.0519 19.1722 96.9244 16.8449 98.5379C13.2484 101.096 10.6633 104.903 9.56162 109.264C8.45992 113.626 8.9151 118.251 10.844 122.294C11.7192 124.107 12.9564 125.708 14.4743 126.992C15.9922 128.276 17.7563 129.214 19.6507 129.744C27.5372 131.867 35.8282 126.123 38.1486 116.953C40.464 107.777 35.9343 98.59 28.0377 96.4721C26.9516 96.179 25.8338 96.0299 24.7112 96.0287Z" fill="#F6A6BF"/>
<path d="M272.348 180.611C272.272 194.695 262.186 206.073 249.821 206C237.455 205.927 227.496 194.445 227.577 180.35C227.658 166.254 237.743 154.893 250.104 154.96C262.464 155.028 272.424 166.52 272.348 180.611Z" fill="#FAF7F5"/>
<path d="M249.002 197.069H248.88C245.729 197.035 242.62 196.311 239.759 194.946C236.898 193.581 234.35 191.606 232.283 189.15C227.916 184.039 225.55 177.434 225.645 170.621C225.721 156.16 236.211 144.449 249.042 144.449H249.168C252.319 144.483 255.428 145.207 258.288 146.572C261.148 147.937 263.695 149.912 265.76 152.368C270.128 157.479 272.496 164.084 272.403 170.897C272.322 185.353 261.837 197.069 249.002 197.069ZM249.042 150.886C239.639 150.886 231.95 159.754 231.889 170.652C231.808 175.867 233.61 180.926 236.944 184.847C238.431 186.628 240.268 188.064 242.332 189.06C244.397 190.055 246.642 190.587 248.921 190.621H249.007C258.415 190.621 266.099 181.753 266.16 170.855C266.243 165.64 264.44 160.58 261.104 156.661C259.617 154.881 257.781 153.447 255.718 152.453C253.654 151.458 251.41 150.926 249.133 150.891L249.042 150.886Z" fill="#F6A6BF"/>
</g>
<path d="M233.574 11.164C231.922 11.5508 230.891 12.1015 229.777 13.2148C228.535 14.4453 227.727 15.8633 227.293 17.5625C227.07 18.4531 227.094 20.7851 227.328 21.8984C227.434 22.3789 227.562 23.082 227.598 23.4453L227.68 24.1015L227.117 24.1836C223.848 24.6406 220.754 25.7656 218.293 27.4062C217.098 28.2031 215.352 29.8086 214.695 30.6992C214.402 31.0976 214.227 31.25 214.133 31.1679C213.816 30.8984 212.082 30.3242 211.098 30.1367C209.832 29.914 209.387 29.9726 208.648 30.4414C208.027 30.8398 207.488 31.789 207.254 32.8906C207.031 33.9687 207.184 37.3203 207.547 39.3125C207.816 40.789 208.602 44.0937 208.871 44.8672C208.965 45.1133 208.848 45.4297 208.203 46.6836L207.441 48.207L206.797 48.125C205.941 48.0312 203.82 48.0078 203.574 48.1015C203.281 48.2187 203.023 48.8281 203.105 49.2031C203.246 49.8476 203.504 49.9414 205.168 50.0351C206.012 50.082 206.727 50.1406 206.75 50.1758C206.785 50.1992 206.75 50.375 206.68 50.5625C206.469 51.0898 206.094 53.5039 206.094 54.2656C206.094 54.9453 206.082 54.957 205.719 55.0859C205.508 55.1679 204.875 55.4492 204.324 55.7187C203.316 56.2343 203.047 56.5156 203.047 57.0664C203.047 57.3711 203.656 57.9922 203.961 57.9922C204.102 57.9922 204.641 57.7812 205.168 57.5234C206.199 57.0312 206.316 57.0429 206.328 57.6406C206.34 57.8047 206.539 58.5078 206.773 59.2226L207.207 60.5L206.199 61.5078C205.484 62.2226 205.098 62.7148 204.828 63.2773C203.398 66.2422 204.113 68.5976 206.855 69.957C208.309 70.6836 209.68 70.9179 212.246 70.9297C214.707 70.9297 215.492 70.7656 217.32 69.875L218.422 69.3476L219.781 69.6992C223.285 70.6015 226.016 70.9297 230.059 70.9297C234.102 70.9297 236.832 70.6015 240.336 69.6992L241.695 69.3476L242.797 69.875C244.625 70.7656 245.41 70.9297 247.871 70.9297C250.426 70.9179 251.75 70.6836 253.238 69.9687C255.992 68.6211 256.719 66.2539 255.289 63.2773C255.02 62.7148 254.633 62.2226 253.906 61.4961L252.887 60.4765L253.121 59.914C253.238 59.5976 253.473 58.8476 253.625 58.2383C253.777 57.6289 253.93 57.1133 253.953 57.0898C253.977 57.0547 254.422 57.2539 254.949 57.5117C255.465 57.7812 256.004 57.9922 256.145 57.9922C256.449 57.9922 257.07 57.3828 257.07 57.0664C257.07 56.5156 256.801 56.2343 255.793 55.7187C255.242 55.4492 254.609 55.1679 254.41 55.0859C254.035 54.957 254.023 54.9453 254.023 54.2656C254.023 53.5039 253.648 51.0898 253.438 50.5625C253.367 50.375 253.332 50.1992 253.367 50.1758C253.391 50.1406 254.105 50.082 254.949 50.0351C256.613 49.9414 256.871 49.8476 257.012 49.2031C257.094 48.8281 256.836 48.2187 256.543 48.1015C256.297 48.0078 254.176 48.0312 253.32 48.125L252.676 48.207L251.926 46.6953L251.188 45.1836L251.609 43.6484C253.414 37.039 253.52 32.3984 251.867 30.7461C251.188 30.0664 250.543 29.9023 249.324 30.0898C248.34 30.2422 247.109 30.6172 246.324 31.0156L245.832 31.2734L245.422 30.6992C244.754 29.7968 242.984 28.1797 241.801 27.4062C239.797 26.0703 237.148 24.9687 234.781 24.5L233.691 24.2773L233.562 23C233.48 22.2968 233.34 21.2773 233.223 20.7265C233 19.625 233.047 18.9687 233.387 18.289C233.691 17.6797 234.348 17.1289 234.863 17.0234C235.59 16.8945 236.844 17.3398 238.062 18.1718C238.812 18.6875 239.352 18.875 240.09 18.875C242.316 18.875 243.699 16.5898 242.715 14.5625C242.469 14.0586 242.211 13.7773 241.613 13.332C240.617 12.5937 238.742 11.6562 237.617 11.3515C236.48 11.0351 234.523 10.9414 233.574 11.164ZM237.488 13.414C238.508 13.7539 240.125 14.6445 240.699 15.1836C241.086 15.5703 241.121 16.1093 240.77 16.5547C240.418 17 239.82 16.9765 239.129 16.4726C238.332 15.9101 236.832 15.2422 236.035 15.0898C234.195 14.75 232.637 15.5117 231.711 17.1992C231.02 18.4765 230.926 19.3906 231.277 21.2539C231.406 21.8984 231.547 22.7773 231.582 23.2109L231.664 24.0078H230.668H229.672L229.602 23.3281C229.555 22.9648 229.414 22.0742 229.273 21.3711C228.852 19.0859 229.168 17.3281 230.305 15.6523C231.945 13.25 234.547 12.4414 237.488 13.414ZM232.73 26.1758C237.242 26.7617 241.18 28.7422 243.605 31.6367L244.062 32.1875L243.207 32.6914C242.75 32.9609 241.742 33.6054 240.98 34.1093L239.598 35.0351L238.754 34.6953C235.801 33.4765 232.801 32.9609 229.297 33.0664C226.438 33.1484 224.012 33.6406 221.551 34.625L220.531 35.0234L219.441 34.2851C218.832 33.875 217.824 33.2304 217.203 32.8554L216.066 32.1758L216.406 31.7539C217.309 30.6172 218.727 29.4453 220.273 28.5312C223.707 26.4922 228.406 25.6133 232.73 26.1758ZM211.215 32.2109C211.754 32.3398 212.516 32.5859 212.914 32.7734C214.039 33.289 216.582 34.7773 218.445 36.0195C219.477 36.7109 220.227 37.1328 220.414 37.1328C220.578 37.1328 221.105 36.9687 221.574 36.7695C224.609 35.4687 227.387 34.9531 230.703 35.0586C233.598 35.1523 235.52 35.5508 238.145 36.6172C238.859 36.8984 239.586 37.1328 239.773 37.1328C239.984 37.1328 240.523 36.8398 241.344 36.2656C245.516 33.3945 249.43 31.5781 250.379 32.082C250.977 32.4101 251.211 34.8945 250.871 37.4843C250.648 39.125 250.086 41.7383 249.605 43.3789C248.984 45.5 248.984 45.4765 249.676 46.6953C249.992 47.2695 250.344 47.9258 250.438 48.1601L250.613 48.5703L249.254 48.9687C247.695 49.414 245.117 50.6445 244.484 51.2304C244.039 51.6523 243.969 51.9687 244.203 52.4023C244.578 53.1172 245.07 53.1172 246.359 52.3789C247.965 51.4531 251.105 50.3164 251.34 50.5742C251.539 50.8086 252.16 54.2773 252.02 54.4179C251.996 54.4414 251.469 54.3828 250.859 54.289C249.465 54.0898 247.121 53.9492 246.723 54.0547C246.395 54.1367 246.055 54.6523 246.055 55.0625C246.055 55.2031 246.195 55.4609 246.383 55.6367C246.688 55.9414 246.781 55.9648 248.105 56.0351C249.5 56.1172 251.773 56.4101 251.902 56.5273C251.984 56.6211 251.715 57.8984 251.41 58.789C251.141 59.6211 251.258 59.5859 249.98 59.2343C249.066 58.9765 247.074 58.9648 246.113 59.2226C242.621 60.125 239.855 63.3945 240.113 66.3008C240.16 66.7226 240.219 67.2148 240.254 67.3789C240.336 67.6718 240.312 67.6836 238.941 67.9883C235.73 68.7265 233.715 68.9375 230.059 68.9375C226.402 68.9375 224.387 68.7265 221.176 67.9883C219.805 67.6836 219.781 67.6718 219.863 67.3789C219.898 67.2148 219.957 66.7226 220.004 66.3008C220.262 63.3593 217.543 60.1601 214.004 59.2226C213.055 58.9648 211.062 58.9765 210.137 59.2343C208.895 59.5742 208.977 59.5976 208.766 58.9648C208.508 58.2265 208.203 57.0195 208.203 56.7383C208.203 56.539 208.332 56.4804 209 56.375C210.172 56.164 211.801 56 212.633 56C213.301 56 213.418 55.9648 213.723 55.6601C213.91 55.4726 214.062 55.2031 214.062 55.0625C214.062 54.6523 213.723 54.1367 213.395 54.0547C212.996 53.9492 210.652 54.0898 209.258 54.289C208.648 54.3828 208.121 54.4414 208.098 54.4179C207.957 54.2773 208.578 50.8086 208.777 50.5742C209.012 50.3164 212.152 51.4531 213.758 52.3789C215.047 53.1172 215.539 53.1172 215.914 52.4023C216.301 51.6875 215.891 51.207 214.098 50.2929C212.715 49.5781 211.262 49.0156 210.113 48.7343L209.504 48.5937L209.68 48.1718C209.773 47.9258 210.113 47.2812 210.43 46.7187C210.758 46.1445 211.016 45.5468 211.016 45.3711C211.016 45.1836 210.805 44.3047 210.535 43.4023C210.008 41.5508 209.457 38.9258 209.246 37.2265C209.059 35.6093 209.152 33.0898 209.422 32.5625C209.785 31.8828 209.82 31.8711 211.215 32.2109ZM213.723 61.2265C216.277 61.9765 218.363 64.5195 218 66.4648C217.848 67.2734 216.57 68.2929 215.352 68.5742L215.059 68.6445V67.1328C215.059 65.7031 215.047 65.6093 214.777 65.3281C214.379 64.9062 213.746 64.9062 213.348 65.3281C213.102 65.5976 213.066 65.7383 213.031 66.875C212.984 68.5273 212.961 68.6328 212.48 68.8554C212.141 69.0195 212.035 69.0195 211.707 68.8906C211.168 68.6679 211.016 68.1875 211.016 66.7578C211.016 65.6914 210.992 65.539 210.758 65.2929C210.395 64.9062 209.738 64.9297 209.363 65.3281C209.094 65.6093 209.082 65.7031 209.082 67.1328V68.6445L208.789 68.5742C207.547 68.2929 206.305 67.3086 206.141 66.4883C205.93 65.3515 206.445 64.0742 207.547 62.9609C208.859 61.6484 210.266 61.0508 212.023 61.039C212.656 61.039 213.336 61.1093 213.723 61.2265ZM249.699 61.2265C251.844 61.8593 253.801 63.8281 253.988 65.5508C254.082 66.3711 253.941 66.875 253.426 67.4258C253.004 67.8828 252.043 68.4101 251.328 68.5742L251.035 68.6445V67.1328C251.035 65.7031 251.023 65.6093 250.754 65.3281C250.391 64.9414 249.758 64.9179 249.371 65.2812C249.125 65.5156 249.102 65.6328 249.102 66.7461C249.102 68.1875 248.949 68.6679 248.41 68.8906C248.082 69.0195 247.977 69.0195 247.637 68.8554C247.156 68.6328 247.133 68.5273 247.086 66.875C247.051 65.7383 247.016 65.5976 246.77 65.3281C246.371 64.9062 245.738 64.9062 245.34 65.3281C245.07 65.6093 245.059 65.7031 245.059 67.1328L245.07 68.6445L244.766 68.5742C244.074 68.4218 242.996 67.8125 242.609 67.3437C241.941 66.5703 241.906 65.5976 242.492 64.4023C243.125 63.0781 244.602 61.8359 246.137 61.3203C247.121 60.9804 248.727 60.9453 249.699 61.2265Z" fill="#241D50"/>
<path d="M218.059 46.2853C216.934 46.5783 216.395 46.8478 216.184 47.2228C215.867 47.7853 216.348 48.6174 216.992 48.6174C217.168 48.6174 217.614 48.5119 218 48.3713C218.387 48.2306 219.137 48.1017 219.711 48.0666C221.422 47.9611 222.266 48.4299 222.934 49.8713C223.145 50.34 223.426 50.7736 223.555 50.8439C223.953 51.0549 224.375 50.9728 224.75 50.6095C225.184 50.1759 225.16 49.8244 224.657 48.7931C224.024 47.5158 222.969 46.6017 221.692 46.2267C220.813 45.9689 219.149 45.9924 218.059 46.2853Z" fill="#241D50"/>
<path d="M237.418 46.215C235.813 46.7072 234.289 48.3947 234.125 49.8478C234.078 50.2814 234.113 50.3986 234.371 50.6564C234.957 51.2423 235.789 50.9376 236.094 50.0236C236.305 49.3908 237.078 48.5236 237.676 48.254C238.332 47.9494 239.668 47.9611 240.723 48.2775C242.059 48.6759 242.363 48.6876 242.703 48.3361C243.008 48.0431 243.09 47.5744 242.938 47.1525C242.832 46.883 242.129 46.5548 241.063 46.2736C239.996 46.004 238.191 45.9689 237.418 46.215Z" fill="#241D50"/>
<path d="M227.48 52.1795C226.438 52.6834 225.898 53.6912 226.156 54.6873C226.25 55.0858 226.508 55.4491 227.223 56.2225C227.75 56.7733 228.371 57.3592 228.605 57.5233L229.051 57.8162L229.062 59.5741C229.062 61.1795 229.039 61.3905 228.805 61.8592C228.652 62.1405 228.395 62.4686 228.23 62.5975C227.586 63.0662 226.543 63.0662 225.91 62.5975C225.289 62.1287 225.16 61.8123 225.078 60.617C225.008 59.6209 224.973 59.4569 224.738 59.2694C224.293 58.9061 223.719 58.9412 223.355 59.3514C223.121 59.6092 223.086 59.7733 223.086 60.6873C223.086 62.0233 223.379 62.8553 224.129 63.6522C225.641 65.2694 228.043 65.41 229.684 63.9686L230.082 63.6287L230.34 63.8983C230.727 64.3084 231.617 64.7537 232.367 64.9061C233.645 65.1639 235.027 64.6834 235.988 63.6522C236.738 62.8553 237.031 62.0233 237.031 60.6873C237.031 59.7733 236.996 59.6092 236.773 59.3514C236.398 58.9412 235.824 58.9061 235.379 59.2694C235.145 59.4569 235.109 59.6209 235.039 60.617C234.957 61.8123 234.828 62.1287 234.207 62.5975C233.574 63.0662 232.531 63.0662 231.887 62.5975C231.723 62.4686 231.465 62.1405 231.324 61.8592C231.078 61.3905 231.055 61.1795 231.055 59.5741L231.066 57.8162L231.512 57.5233C231.746 57.3592 232.367 56.7733 232.895 56.2225C233.609 55.4491 233.867 55.0858 233.961 54.6873C234.184 53.8319 233.809 52.953 233 52.3905C232.543 52.0741 232.543 52.0741 230.188 52.0506C228.348 52.0272 227.75 52.0506 227.48 52.1795ZM231.945 54.1366C232.051 54.3123 230.34 55.9998 230.059 55.9998C229.777 55.9998 228.066 54.3123 228.172 54.1366C228.23 54.0545 228.828 54.0077 230.059 54.0077C231.289 54.0077 231.887 54.0545 231.945 54.1366Z" fill="#241D50"/>
<path d="M74.4 106.894C72.9867 106.894 71.7067 106.587 70.56 105.974C69.4267 105.347 68.5333 104.487 67.88 103.394C67.24 102.301 66.92 101.067 66.92 99.694C66.92 98.3207 67.2467 97.0874 67.9 95.994C68.5533 94.9007 69.4467 94.0474 70.58 93.434C71.7267 92.8074 73.0067 92.494 74.42 92.494C75.5667 92.494 76.6133 92.694 77.56 93.094C78.5067 93.494 79.3067 94.074 79.96 94.834L78.28 96.414C77.2667 95.3207 76.02 94.774 74.54 94.774C73.58 94.774 72.72 94.9874 71.96 95.414C71.2 95.8274 70.6067 96.4074 70.18 97.154C69.7533 97.9007 69.54 98.7474 69.54 99.694C69.54 100.641 69.7533 101.487 70.18 102.234C70.6067 102.981 71.2 103.567 71.96 103.994C72.72 104.407 73.58 104.614 74.54 104.614C76.02 104.614 77.2667 104.061 78.28 102.954L79.96 104.554C79.3067 105.314 78.5 105.894 77.54 106.294C76.5933 106.694 75.5467 106.894 74.4 106.894ZM86.5341 102.414H84.5941V106.694H82.0941V96.014H84.5941V100.334H86.5941L89.7541 96.014H92.4341L88.5541 101.154L92.6941 106.694H89.7541L86.5341 102.414ZM94.4573 96.014H96.9573V103.054L102.857 96.014H105.137V106.694H102.637V99.654L96.7573 106.694H94.4573V96.014ZM119.9 104.574V109.074H117.56V106.694H109.32V109.074H107V104.574H107.5C108.18 104.547 108.64 104.114 108.88 103.274C109.134 102.421 109.3 101.221 109.38 99.674L109.52 96.014H118.32V104.574H119.9ZM111.66 99.854C111.607 101.081 111.507 102.081 111.36 102.854C111.214 103.627 110.947 104.201 110.56 104.574H115.82V98.134H111.72L111.66 99.854ZM126.573 102.414H124.633V106.694H122.133V96.014H124.633V100.334H126.633L129.793 96.014H132.473L128.593 101.154L132.733 106.694H129.793L126.573 102.414ZM138.281 95.894C139.854 95.894 141.054 96.274 141.881 97.034C142.721 97.7807 143.141 98.914 143.141 100.434V106.694H140.781V105.394C140.474 105.861 140.034 106.221 139.461 106.474C138.901 106.714 138.221 106.834 137.421 106.834C136.621 106.834 135.921 106.701 135.321 106.434C134.721 106.154 134.254 105.774 133.921 105.294C133.601 104.801 133.441 104.247 133.441 103.634C133.441 102.674 133.794 101.907 134.501 101.334C135.221 100.747 136.348 100.454 137.881 100.454H140.641V100.294C140.641 99.5474 140.414 98.974 139.961 98.574C139.521 98.174 138.861 97.974 137.981 97.974C137.381 97.974 136.788 98.0674 136.201 98.254C135.628 98.4407 135.141 98.7007 134.741 99.034L133.761 97.214C134.321 96.7874 134.994 96.4607 135.781 96.234C136.568 96.0074 137.401 95.894 138.281 95.894ZM137.941 105.014C138.568 105.014 139.121 104.874 139.601 104.594C140.094 104.301 140.441 103.887 140.641 103.354V102.114H138.061C136.621 102.114 135.901 102.587 135.901 103.534C135.901 103.987 136.081 104.347 136.441 104.614C136.801 104.881 137.301 105.014 137.941 105.014ZM161.102 104.494V106.694H150.782V104.954L156.342 99.674C156.969 99.074 157.389 98.554 157.602 98.114C157.829 97.6607 157.942 97.214 157.942 96.774C157.942 96.1207 157.722 95.6207 157.282 95.274C156.842 94.9274 156.195 94.754 155.342 94.754C153.915 94.754 152.822 95.2407 152.062 96.214L150.242 94.814C150.789 94.0807 151.522 93.514 152.442 93.114C153.375 92.7007 154.415 92.494 155.562 92.494C157.082 92.494 158.295 92.854 159.202 93.574C160.109 94.294 160.562 95.274 160.562 96.514C160.562 97.274 160.402 97.9874 160.082 98.654C159.762 99.3207 159.149 100.081 158.242 100.934L154.502 104.494H161.102ZM168.384 106.894C167.264 106.894 166.264 106.614 165.384 106.054C164.504 105.481 163.811 104.654 163.304 103.574C162.797 102.481 162.544 101.187 162.544 99.694C162.544 98.2007 162.797 96.914 163.304 95.834C163.811 94.7407 164.504 93.914 165.384 93.354C166.264 92.7807 167.264 92.494 168.384 92.494C169.504 92.494 170.504 92.7807 171.384 93.354C172.277 93.914 172.977 94.7407 173.484 95.834C173.991 96.914 174.244 98.2007 174.244 99.694C174.244 101.187 173.991 102.481 173.484 103.574C172.977 104.654 172.277 105.481 171.384 106.054C170.504 106.614 169.504 106.894 168.384 106.894ZM168.384 104.634C169.384 104.634 170.171 104.221 170.744 103.394C171.331 102.567 171.624 101.334 171.624 99.694C171.624 98.054 171.331 96.8207 170.744 95.994C170.171 95.1674 169.384 94.754 168.384 94.754C167.397 94.754 166.611 95.1674 166.024 95.994C165.451 96.8207 165.164 98.054 165.164 99.694C165.164 101.334 165.451 102.567 166.024 103.394C166.611 104.221 167.397 104.634 168.384 104.634ZM179.121 100.234C178.121 100.234 177.314 99.8807 176.701 99.174C176.088 98.4674 175.781 97.5407 175.781 96.394C175.781 95.2474 176.088 94.3207 176.701 93.614C177.314 92.9074 178.121 92.554 179.121 92.554C180.121 92.554 180.928 92.9074 181.541 93.614C182.168 94.3074 182.481 95.234 182.481 96.394C182.481 97.554 182.168 98.4874 181.541 99.194C180.928 99.8874 180.121 100.234 179.121 100.234ZM187.521 92.694H189.481L179.921 106.694H177.961L187.521 92.694ZM179.121 98.834C179.668 98.834 180.088 98.6207 180.381 98.194C180.688 97.7674 180.841 97.1674 180.841 96.394C180.841 95.6207 180.688 95.0207 180.381 94.594C180.088 94.1674 179.668 93.954 179.121 93.954C178.601 93.954 178.181 94.174 177.861 94.614C177.554 95.0407 177.401 95.634 177.401 96.394C177.401 97.154 177.554 97.754 177.861 98.194C178.181 98.6207 178.601 98.834 179.121 98.834ZM188.301 106.834C187.301 106.834 186.494 106.481 185.881 105.774C185.268 105.067 184.961 104.141 184.961 102.994C184.961 101.847 185.268 100.921 185.881 100.214C186.494 99.5074 187.301 99.154 188.301 99.154C189.301 99.154 190.108 99.5074 190.721 100.214C191.348 100.921 191.661 101.847 191.661 102.994C191.661 104.141 191.348 105.067 190.721 105.774C190.108 106.481 189.301 106.834 188.301 106.834ZM188.301 105.434C188.834 105.434 189.254 105.221 189.561 104.794C189.868 104.354 190.021 103.754 190.021 102.994C190.021 102.234 189.868 101.641 189.561 101.214C189.254 100.774 188.834 100.554 188.301 100.554C187.768 100.554 187.348 100.767 187.041 101.194C186.734 101.621 186.581 102.221 186.581 102.994C186.581 103.767 186.734 104.367 187.041 104.794C187.348 105.221 187.768 105.434 188.301 105.434ZM210.935 104.574V109.074H208.595V106.694H200.355V109.074H198.035V104.574H198.535C199.215 104.547 199.675 104.114 199.915 103.274C200.169 102.421 200.335 101.221 200.415 99.674L200.555 96.014H209.355V104.574H210.935ZM202.695 99.854C202.642 101.081 202.542 102.081 202.395 102.854C202.249 103.627 201.982 104.201 201.595 104.574H206.855V98.134H202.755L202.695 99.854ZM217.928 106.834C216.848 106.834 215.875 106.601 215.008 106.134C214.142 105.667 213.462 105.021 212.968 104.194C212.488 103.354 212.248 102.407 212.248 101.354C212.248 100.301 212.488 99.3607 212.968 98.534C213.462 97.7074 214.142 97.0607 215.008 96.594C215.875 96.1274 216.848 95.894 217.928 95.894C219.022 95.894 220.002 96.1274 220.868 96.594C221.735 97.0607 222.408 97.7074 222.888 98.534C223.382 99.3607 223.628 100.301 223.628 101.354C223.628 102.407 223.382 103.354 222.888 104.194C222.408 105.021 221.735 105.667 220.868 106.134C220.002 106.601 219.022 106.834 217.928 106.834ZM217.928 104.694C218.848 104.694 219.608 104.387 220.208 103.774C220.808 103.161 221.108 102.354 221.108 101.354C221.108 100.354 220.808 99.5474 220.208 98.934C219.608 98.3207 218.848 98.014 217.928 98.014C217.008 98.014 216.248 98.3207 215.648 98.934C215.062 99.5474 214.768 100.354 214.768 101.354C214.768 102.354 215.062 103.161 215.648 103.774C216.248 104.387 217.008 104.694 217.928 104.694ZM72.12 130.414H70.18V134.694H67.68V124.014H70.18V128.334H72.18L75.34 124.014H78.02L74.14 129.154L78.28 134.694H75.34L72.12 130.414ZM84.4517 134.834C83.3717 134.834 82.3984 134.601 81.5317 134.134C80.6651 133.667 79.9851 133.021 79.4917 132.194C79.0117 131.354 78.7717 130.407 78.7717 129.354C78.7717 128.301 79.0117 127.361 79.4917 126.534C79.9851 125.707 80.6651 125.061 81.5317 124.594C82.3984 124.127 83.3717 123.894 84.4517 123.894C85.5451 123.894 86.5251 124.127 87.3917 124.594C88.2584 125.061 88.9317 125.707 89.4117 126.534C89.9051 127.361 90.1517 128.301 90.1517 129.354C90.1517 130.407 89.9051 131.354 89.4117 132.194C88.9317 133.021 88.2584 133.667 87.3917 134.134C86.5251 134.601 85.5451 134.834 84.4517 134.834ZM84.4517 132.694C85.3717 132.694 86.1317 132.387 86.7317 131.774C87.3317 131.161 87.6317 130.354 87.6317 129.354C87.6317 128.354 87.3317 127.547 86.7317 126.934C86.1317 126.321 85.3717 126.014 84.4517 126.014C83.5317 126.014 82.7717 126.321 82.1717 126.934C81.5851 127.547 81.2917 128.354 81.2917 129.354C81.2917 130.354 81.5851 131.161 82.1717 131.774C82.7717 132.387 83.5317 132.694 84.4517 132.694ZM92.6214 124.014H95.1214V128.354H100.501V124.014H103.001V134.694H100.501V130.474H95.1214V134.694H92.6214V124.014ZM118.072 132.574V137.154H115.732V134.694H106.352V124.014H108.852V132.574H113.952V124.014H116.452V132.574H118.072ZM124.277 123.894C125.851 123.894 127.051 124.274 127.877 125.034C128.717 125.781 129.137 126.914 129.137 128.434V134.694H126.777V133.394C126.471 133.861 126.031 134.221 125.457 134.474C124.897 134.714 124.217 134.834 123.417 134.834C122.617 134.834 121.917 134.701 121.317 134.434C120.717 134.154 120.251 133.774 119.917 133.294C119.597 132.801 119.437 132.247 119.437 131.634C119.437 130.674 119.791 129.907 120.497 129.334C121.217 128.747 122.344 128.454 123.877 128.454H126.637V128.294C126.637 127.547 126.411 126.974 125.957 126.574C125.517 126.174 124.857 125.974 123.977 125.974C123.377 125.974 122.784 126.067 122.197 126.254C121.624 126.441 121.137 126.701 120.737 127.034L119.757 125.214C120.317 124.787 120.991 124.461 121.777 124.234C122.564 124.007 123.397 123.894 124.277 123.894ZM123.937 133.014C124.564 133.014 125.117 132.874 125.597 132.594C126.091 132.301 126.437 131.887 126.637 131.354V130.114H124.057C122.617 130.114 121.897 130.587 121.897 131.534C121.897 131.987 122.077 132.347 122.437 132.614C122.797 132.881 123.297 133.014 123.937 133.014ZM137.758 124.014H140.258V128.354H145.638V124.014H148.138V134.694H145.638V130.474H140.258V134.694H137.758V124.014ZM156.249 134.834C155.169 134.834 154.195 134.601 153.329 134.134C152.462 133.667 151.782 133.021 151.289 132.194C150.809 131.354 150.569 130.407 150.569 129.354C150.569 128.301 150.809 127.361 151.289 126.534C151.782 125.707 152.462 125.061 153.329 124.594C154.195 124.127 155.169 123.894 156.249 123.894C157.342 123.894 158.322 124.127 159.189 124.594C160.055 125.061 160.729 125.707 161.209 126.534C161.702 127.361 161.949 128.301 161.949 129.354C161.949 130.407 161.702 131.354 161.209 132.194C160.729 133.021 160.055 133.667 159.189 134.134C158.322 134.601 157.342 134.834 156.249 134.834ZM156.249 132.694C157.169 132.694 157.929 132.387 158.529 131.774C159.129 131.161 159.429 130.354 159.429 129.354C159.429 128.354 159.129 127.547 158.529 126.934C157.929 126.321 157.169 126.014 156.249 126.014C155.329 126.014 154.569 126.321 153.969 126.934C153.382 127.547 153.089 128.354 153.089 129.354C153.089 130.354 153.382 131.161 153.969 131.774C154.569 132.387 155.329 132.694 156.249 132.694ZM173.087 124.014V134.694H170.847V131.474H168.027L165.847 134.694H163.167L165.687 131.134C164.913 130.867 164.32 130.461 163.907 129.914C163.507 129.354 163.307 128.667 163.307 127.854C163.307 126.627 163.74 125.681 164.607 125.014C165.473 124.347 166.667 124.014 168.187 124.014H173.087ZM168.267 126.114C166.653 126.114 165.847 126.721 165.847 127.934C165.847 129.134 166.627 129.734 168.187 129.734H170.847V126.114H168.267ZM182.23 124.534C183.243 124.534 184.136 124.754 184.91 125.194C185.683 125.621 186.283 126.221 186.71 126.994C187.15 127.767 187.37 128.654 187.37 129.654C187.37 130.681 187.13 131.594 186.65 132.394C186.17 133.181 185.496 133.794 184.63 134.234C183.763 134.674 182.776 134.894 181.67 134.894C179.816 134.894 178.383 134.281 177.37 133.054C176.356 131.827 175.85 130.061 175.85 127.754C175.85 125.607 176.31 123.907 177.23 122.654C178.15 121.401 179.556 120.574 181.45 120.174L186.41 119.114L186.77 121.354L182.27 122.274C180.976 122.541 180.01 122.994 179.37 123.634C178.73 124.274 178.356 125.174 178.25 126.334C178.73 125.761 179.31 125.321 179.99 125.014C180.67 124.694 181.416 124.534 182.23 124.534ZM181.73 132.874C182.65 132.874 183.39 132.581 183.95 131.994C184.523 131.394 184.81 130.634 184.81 129.714C184.81 128.794 184.523 128.054 183.95 127.494C183.39 126.934 182.65 126.654 181.73 126.654C180.796 126.654 180.043 126.934 179.47 127.494C178.896 128.054 178.61 128.794 178.61 129.714C178.61 130.647 178.896 131.407 179.47 131.994C180.056 132.581 180.81 132.874 181.73 132.874ZM195.709 123.894C196.749 123.894 197.676 124.121 198.489 124.574C199.316 125.027 199.963 125.667 200.429 126.494C200.896 127.321 201.129 128.274 201.129 129.354C201.129 130.434 200.896 131.394 200.429 132.234C199.963 133.061 199.316 133.701 198.489 134.154C197.676 134.607 196.749 134.834 195.709 134.834C194.269 134.834 193.129 134.354 192.289 133.394V138.574H189.789V124.014H192.169V125.414C192.583 124.907 193.089 124.527 193.689 124.274C194.303 124.021 194.976 123.894 195.709 123.894ZM195.429 132.694C196.349 132.694 197.103 132.387 197.689 131.774C198.289 131.161 198.589 130.354 198.589 129.354C198.589 128.354 198.289 127.547 197.689 126.934C197.103 126.321 196.349 126.014 195.429 126.014C194.829 126.014 194.289 126.154 193.809 126.434C193.329 126.701 192.949 127.087 192.669 127.594C192.389 128.101 192.249 128.687 192.249 129.354C192.249 130.021 192.389 130.607 192.669 131.114C192.949 131.621 193.329 132.014 193.809 132.294C194.289 132.561 194.829 132.694 195.429 132.694ZM212.286 124.014V134.694H210.046V131.474H207.226L205.046 134.694H202.366L204.886 131.134C204.113 130.867 203.519 130.461 203.106 129.914C202.706 129.354 202.506 128.667 202.506 127.854C202.506 126.627 202.939 125.681 203.806 125.014C204.673 124.347 205.866 124.014 207.386 124.014H212.286ZM207.466 126.114C205.853 126.114 205.046 126.721 205.046 127.934C205.046 129.134 205.826 129.734 207.386 129.734H210.046V126.114H207.466ZM215.289 120.694H218.249L217.749 130.054H215.769L215.289 120.694ZM216.769 134.834C216.302 134.834 215.915 134.687 215.609 134.394C215.302 134.087 215.149 133.714 215.149 133.274C215.149 132.834 215.302 132.467 215.609 132.174C215.915 131.881 216.302 131.734 216.769 131.734C217.222 131.734 217.595 131.881 217.889 132.174C218.195 132.467 218.349 132.834 218.349 133.274C218.349 133.714 218.195 134.087 217.889 134.394C217.595 134.687 217.222 134.834 216.769 134.834Z" fill="#242424"/>
<defs>
<clipPath id="clip0_13:811">
<rect width="283" height="206" fill="white"/>
</clipPath>
</defs>
</svg>
