<svg width="41" height="34" viewBox="0 0 41 34" fill="none" xmlns="http://www.w3.org/2000/svg">
<g opacity="0.7">
<path d="M27.4822 0.57779C24.2798 1.42568 22.3584 5.4783 23.709 8.52496C25.4216 12.3764 30.5733 11.8734 32.4947 7.67707C32.8985 6.78607 32.9402 6.58487 32.9402 5.26274C32.9402 3.98372 32.8985 3.73941 32.5504 3.00649C32.1188 2.11549 31.3808 1.33945 30.4758 0.865211C29.8214 0.520306 28.2759 0.376595 27.4822 0.57779ZM29.6682 3.06398C30.3923 3.58133 30.6846 4.08432 30.7543 4.94658C31.0049 8.15131 27.2177 10.2639 25.8114 7.69144C24.4748 5.26274 27.5379 1.58376 29.6682 3.06398Z" fill="#F6A6BF"/>
<path d="M11.6084 0.822395C10.7591 1.13856 9.70089 2.18764 9.24142 3.1505C8.89333 3.88342 8.85156 4.12773 8.85156 5.40675C8.85156 6.72888 8.89333 6.93008 9.29711 7.82108C10.2021 9.80428 11.9565 11.0977 13.8919 11.1983C15.2007 11.2701 16.0778 10.9683 16.9829 10.1348C19.1271 8.15161 19.0296 4.54449 16.774 2.21638C15.7298 1.13856 14.7273 0.678685 13.3071 0.635571C12.5691 0.60683 11.9983 0.678685 11.6084 0.822395ZM14.3235 3.16487C15.4513 3.76845 16.1614 4.90376 16.2728 6.26901C16.5234 9.53123 12.6805 9.91925 11.3021 6.772C10.7452 5.49298 11.0375 3.89779 11.9704 3.23673C12.597 2.8056 13.5855 2.77685 14.3235 3.16487Z" fill="#F6A6BF"/>
<path d="M35.3071 10.2641C33.4831 10.7527 32.1743 11.8162 31.3807 13.4976C30.8794 14.5179 30.8516 14.676 30.8516 15.8832C30.8516 16.961 30.9073 17.3059 31.1718 17.852C31.5895 18.7286 32.2996 19.4759 33.1907 19.9645C33.8312 20.3094 34.0679 20.3525 35.2514 20.3525C36.5045 20.3525 36.6298 20.3238 37.6184 19.8208C41.5587 17.8089 42.0878 12.4629 38.5512 10.6665C37.5209 10.1347 36.3374 9.99104 35.3071 10.2641ZM37.7298 12.779C38.6348 13.4688 38.8993 14.4604 38.5095 15.6676C37.9247 17.5071 35.6412 18.6568 34.1236 17.8664C32.6338 17.1047 32.6198 14.9634 34.1097 13.4688C35.1261 12.4485 36.8665 12.1179 37.7298 12.779Z" fill="#F6A6BF"/>
<path d="M3.82602 10.7947C2.73999 11.154 1.82104 11.9731 1.30587 13.0653C0.97171 13.7695 0.916016 14.0569 0.916016 15.1204C0.916016 16.2413 0.957786 16.4281 1.44511 17.4341C3.39439 21.5155 8.67139 22.0328 10.565 18.3395C10.8991 17.7072 10.9409 17.4629 10.9409 16.2557C10.927 15.0629 10.8852 14.7898 10.5371 14.0713C9.7435 12.3755 8.12837 11.0246 6.44363 10.6654C5.42722 10.4498 4.81459 10.4785 3.82602 10.7947ZM6.7778 13.1803C8.379 13.9707 9.22833 16.0257 8.53215 17.4054C8.21191 18.0233 7.26512 18.555 6.4854 18.555C4.81459 18.555 3.07415 16.7156 3.07415 14.9767C3.07415 14.1863 3.68679 13.2953 4.4665 12.9647C4.9399 12.7492 6.13732 12.8641 6.7778 13.1803Z" fill="#F6A6BF"/>
<path d="M18.9618 14.0434C17.1239 14.5464 15.3139 16.1128 14.4645 17.9667C13.9772 19.0014 13.9494 19.0302 12.9469 19.5331C12.2089 19.8924 11.652 20.3092 11.0115 20.9846C7.11295 25.0803 8.95085 31.8347 14.3532 33.2862C16.205 33.7892 18.6137 33.3149 20.1871 32.1653L20.8972 31.6335L21.6073 32.1653C23.1528 33.3149 25.4362 33.7604 27.3577 33.3006C30.6018 32.5102 32.8714 29.521 32.8714 26.0576C32.8714 23.3702 31.2145 20.6972 28.8336 19.5188C27.8032 19.0014 27.7893 18.987 27.3159 17.9523C26.4666 16.0554 24.5312 14.4314 22.568 13.9716C21.6769 13.756 19.8529 13.7991 18.9618 14.0434ZM22.6237 16.4146C24.0021 16.932 25.2413 18.3547 25.6451 19.8493C25.8818 20.7116 26.1046 20.9702 26.8843 21.2002C27.9425 21.5307 28.5829 21.9331 29.293 22.7091C30.2955 23.8157 30.574 24.5343 30.574 26.1007C30.574 27.1929 30.5183 27.509 30.212 28.1989C29.6968 29.3342 28.9589 30.1102 27.8868 30.6563C27.0514 31.0874 26.8425 31.1305 25.7008 31.1305C24.6148 31.1305 24.3502 31.0731 23.668 30.7425C23.2363 30.5126 22.5402 29.9809 22.1085 29.5497C21.0643 28.4863 20.744 28.4863 19.6719 29.5497C19.2403 29.9952 18.5302 30.527 18.1125 30.7425C17.4442 31.0731 17.1796 31.1305 16.0936 31.1305C15.0354 31.1305 14.7152 31.0731 14.0608 30.7569C12.9608 30.2252 12.2089 29.4635 11.6798 28.3569C11.2621 27.4803 11.2204 27.2791 11.2204 26.1007C11.2343 24.5343 11.5128 23.8013 12.5013 22.7091C13.2114 21.9331 13.8519 21.5307 14.9101 21.2002C15.6898 20.9702 15.9126 20.7116 16.1493 19.8493C16.5531 18.3691 17.7923 16.9464 19.1289 16.4146C20.1175 16.0266 21.6212 16.0122 22.6237 16.4146Z" fill="#F6A6BF"/>
</g>
</svg>
