<svg width="52" height="52" viewBox="0 0 52 52" fill="none" xmlns="http://www.w3.org/2000/svg">
<g opacity="0.7">
<path d="M19.0742 9.55103C17.4036 12.4037 18.8715 16.5855 21.949 17.7553C25.8431 19.2305 29.1307 15.2416 27.5626 10.9596C27.2267 10.0534 27.116 9.88368 26.1944 8.96209C25.3028 8.07055 25.1031 7.92976 24.3463 7.66471C23.4205 7.34846 22.3584 7.32869 21.3887 7.63727C20.6861 7.85901 19.4944 8.85031 19.0742 9.55103Z" fill="#F6A6BF"/>
<path d="M8.03549 20.9311C7.65605 21.7513 7.64 23.2299 7.98666 24.2256C8.25171 24.9823 8.39251 25.1821 9.28404 26.0736C10.2056 26.9952 10.3754 27.1059 11.2816 27.4418C13.3031 28.1851 15.4437 27.8476 16.8806 26.551C17.855 25.6767 18.2641 24.8469 18.3222 23.6268C18.4542 20.7301 15.871 18.2846 12.6552 18.2547C11.1665 18.2409 10.1379 18.6284 9.1049 19.6013C8.56372 20.1024 8.21065 20.5556 8.03549 20.9311Z" fill="#F6A6BF"/>
<path d="M31.3528 10.7764C30.4052 12.4051 30.2222 14.0707 30.8337 15.8032C31.1909 16.8684 31.2815 16.9983 32.1229 17.8397C32.8742 18.591 33.154 18.7921 33.7214 18.9859C34.6275 19.302 35.6499 19.3214 36.6198 19.0327C37.3125 18.8207 37.5097 18.6836 38.3455 17.8478C39.2305 16.9628 39.299 16.8543 39.6465 15.8056C41.0269 11.6204 37.6741 7.52031 33.9244 8.76576C32.8261 9.12277 31.8901 9.85841 31.3528 10.7764Z" fill="#F6A6BF"/>
<path d="M9.49012 33.3794C8.97357 34.3968 8.89557 35.6168 9.29305 36.7419C9.54791 37.4688 9.70892 37.7084 10.4502 38.4497C11.2315 39.2311 11.3913 39.3318 12.4366 39.6888C16.6582 41.1571 20.7455 37.791 19.5084 33.8792C19.3036 33.2025 19.1628 33.0027 18.3214 32.1613C17.4801 31.3397 17.2603 31.1788 16.5136 30.9238C14.7711 30.3022 12.6888 30.5013 11.2486 31.4406C10.3805 32.0082 9.96789 32.4609 9.49012 33.3794Z" fill="#F6A6BF"/>
<path d="M22.0015 30.8664C21.309 28.9743 21.4955 26.6042 22.4428 24.9556C22.9019 24.156 24.1599 22.8378 24.9395 22.3587C26.6465 21.2928 29.1453 21.058 31.0674 21.7804C32.1229 22.1673 32.1428 22.1675 33.2311 21.8005C35.7339 20.9405 38.7673 21.6335 40.6405 23.5068C43.0547 25.9209 43.5354 29.6073 41.7953 32.4494C40.7589 34.1269 38.8357 35.429 36.9429 35.7191L36.0707 35.8499L35.9399 36.722C35.6301 38.6345 34.2596 40.6662 32.6012 41.6234C27.7742 44.4269 21.7681 41.0168 21.6665 35.4086C21.648 34.4855 21.7508 33.8017 22.0215 33.0301C22.3789 31.9715 22.3785 31.9318 22.0015 30.8664Z" fill="#F6A6BF"/>
</g>
</svg>
