<svg width="1600" height="789" viewBox="0 0 1600 789" fill="none" xmlns="http://www.w3.org/2000/svg">
<g clip-path="url(#clip0_419:48)">
<path opacity="0.14" d="M702.956 34.423C695.669 30.183 686.946 28.9498 678.535 29.4522C670.124 29.9546 661.902 32.1013 653.772 34.2555C654.767 32.1139 655.04 29.7067 654.551 27.3962C654.061 25.0857 652.836 22.9968 651.06 21.4441C649.214 19.9766 646.941 19.1504 644.585 19.09C642.229 19.0296 639.917 19.7383 637.999 21.1091C634.503 12.1799 629.23 2.51232 619.945 0.388497C612.97 -1.20247 605.562 2.28395 600.821 7.61255C596.079 12.9411 593.587 19.9444 591.908 26.9021C589.689 24.8783 586.954 23.5091 584.007 22.946C581.059 22.383 578.014 22.648 575.207 23.7119C572.401 24.7757 569.943 26.5968 568.106 28.9736C566.268 31.3504 565.123 34.1902 564.797 37.1787C560.641 33.1898 555.756 29.4217 550.072 28.7975C542.915 28.0135 536.98 33.6466 536.107 40.5204C535.127 48.2621 541.182 55.9353 547.702 59.2847C548.195 59.5435 548.697 59.7795 549.221 60.0003H700.646C703.473 58.9964 706.361 58.1727 709.292 57.5339C709.795 57.0916 710.261 56.6078 710.683 56.0876C713.426 52.7001 713.616 47.7141 711.868 43.6948C710.121 39.6755 706.724 36.6153 702.956 34.423Z" fill="url(#paint0_linear_419:48)"/>
</g>
<g clip-path="url(#clip1_419:48)">
<path opacity="0.14" d="M1186.84 51.2121C1183.09 49.092 1178.61 48.4755 1174.28 48.7267C1169.96 48.9779 1165.73 50.0512 1161.55 51.1283C1162.06 50.0575 1162.2 48.8539 1161.95 47.6987C1161.7 46.5434 1161.07 45.499 1160.16 44.7226C1159.21 43.9889 1158.04 43.5758 1156.83 43.5456C1155.62 43.5154 1154.43 43.8697 1153.44 44.5551C1151.64 40.0905 1148.93 35.2567 1144.16 34.1948C1140.57 33.3993 1136.76 35.1425 1134.33 37.8068C1131.89 40.4711 1130.61 43.9728 1129.74 47.4516C1128.6 46.4397 1127.2 45.7551 1125.68 45.4736C1124.17 45.192 1122.6 45.3246 1121.16 45.8565C1119.72 46.3884 1118.45 47.299 1117.51 48.4874C1116.56 49.6758 1115.97 51.0957 1115.81 52.5899C1113.67 50.5955 1111.16 48.7114 1108.24 48.3993C1104.56 48.0073 1101.51 50.8238 1101.06 54.2608C1100.55 58.1316 1103.67 61.9682 1107.02 63.6429C1107.27 63.7723 1107.53 63.8903 1107.8 64.0007H1185.65C1187.1 63.4988 1188.59 63.0869 1190.09 62.7675C1190.35 62.5464 1190.59 62.3045 1190.81 62.0443C1192.22 60.3506 1192.32 57.8576 1191.42 55.8479C1190.52 53.8383 1188.77 52.3082 1186.84 51.2121Z" fill="url(#paint1_linear_419:48)"/>
</g>
<g clip-path="url(#clip2_419:48)">
<path d="M1543.45 630.404C1551.47 612.284 1573.22 604.442 1584.26 587.992C1599 566.017 1590 535.248 1572.99 515.42C1555.97 495.591 1532.46 482.786 1512.86 465.579C1493.26 448.373 1476.69 423.3 1481.42 397.26C1485.2 376.347 1502.98 359.312 1523.37 354.005C1543.76 348.699 1565.93 354.169 1583.17 366.077C1612.67 386.444 1627.12 422.356 1637.94 456.847C1644.59 478.01 1650.75 499.93 1660 519.922V736H1569.49C1562.56 717.792 1555.63 699.584 1548.7 681.376C1542.47 665.043 1536.27 646.541 1543.45 630.404Z" fill="url(#paint2_linear_419:48)"/>
<path d="M1543.53 420.506L1547.55 416.769C1649.72 528.093 1648.54 661.797 1639.87 736H1634.41C1643 662.741 1644.39 530.449 1543.53 420.506Z" fill="white"/>
<path d="M1642.11 702.203L1574.93 635.094L1578.79 631.153L1640.88 693.198C1646.34 683.295 1653.28 670.763 1660 658.551V669.827C1651.62 685.02 1644.58 697.755 1643.87 699.035L1642.11 702.203Z" fill="white"/>
<path d="M1615.62 527.671L1611.81 449.926L1617.27 449.582L1621.82 542.865L1554.36 467.514L1558.43 463.784L1615.62 527.671Z" fill="white"/>
<path d="M1557.79 717.646C1544.24 723.202 1497.11 740.893 1502.19 715.906C1506.59 694.236 1537.17 704.911 1552.57 711.817C1540.69 698.103 1529.51 683.797 1519.08 668.953C1501.37 678.551 1434.95 712.231 1438.49 675.117C1441.78 640.743 1494.54 656.077 1515.18 663.412C1509.43 655.25 1503.82 647.025 1498.27 638.925C1492.81 630.997 1487.42 623.068 1481.88 615.218C1479.1 611.254 1476.23 607.246 1473.3 603.193C1459.13 618.34 1407.76 670.162 1399.43 633.923C1391.44 599.042 1449.84 598.16 1470.13 598.878C1457.28 581.507 1442.92 563.887 1426.61 548.07C1414.91 560.742 1359.91 617.934 1351.31 580.329C1343.07 544.378 1405.39 544.542 1423.78 545.362C1411.46 533.568 1397.85 523.206 1383.2 514.476C1378.65 511.807 1374.01 509.388 1369.32 507.203C1360.79 520.469 1333.66 559.541 1323.69 536.45C1314.75 515.732 1346.53 507.273 1362.85 504.355C1346.57 497.525 1329.23 493.565 1311.61 492.649C1306.79 503.73 1291.32 536.06 1281.13 519.961C1272.83 506.93 1290.64 497.355 1302.89 492.579C1289.03 492.731 1275.31 495.39 1262.4 500.429C1252.38 509.794 1232.27 526.181 1229.27 510.621C1226.34 495.404 1248.24 494.015 1260.36 494.374C1274.37 488.98 1289.26 486.216 1304.27 486.219C1291.84 478.041 1269.68 461.303 1285.04 454.584C1301.64 447.311 1308.8 475.092 1310.97 486.344C1330.56 487.247 1349.82 491.744 1367.78 499.61C1359.35 484.627 1338.85 444.354 1363.2 446.617C1388.53 448.958 1376.46 489.388 1372.26 501.631C1377.04 503.871 1381.78 506.313 1386.41 509.052C1401.19 517.855 1414.95 528.28 1427.42 540.133C1424.11 517.886 1416.13 448.178 1448.95 464.526C1482.76 481.358 1442.39 531.011 1431.21 543.746C1447.22 559.306 1461.37 576.521 1474.04 593.54C1470.62 569.521 1463.86 503.886 1495.85 519.774C1529.67 536.622 1489.27 586.283 1478.1 599.01C1481.22 603.256 1484.23 607.467 1487.13 611.644C1492.66 619.51 1498.06 627.462 1503.52 635.414C1508.98 643.365 1514.44 651.372 1520.04 659.339C1516.6 635.265 1509.93 569.818 1541.89 585.713C1575.77 602.584 1535.15 652.402 1524.07 665.02C1535.53 681.079 1547.56 696.858 1560.74 711.474C1558.64 696.53 1553.27 647.189 1576.11 658.832C1599.73 670.888 1570.33 705.769 1562.98 713.932C1566.46 717.717 1570 721.423 1573.69 725.021C1577.12 728.392 1581.16 732.122 1585.67 736H1576.12C1573.78 733.885 1571.5 731.739 1569.23 729.508C1565.31 725.653 1561.5 721.699 1557.79 717.646Z" fill="#2F296C"/>
<path d="M1610.73 707.408C1622.11 713.089 1617.47 725.824 1611.12 736H1598.06C1596.87 721.017 1597.45 700.767 1610.73 707.408Z" fill="#2F296C"/>
<path d="M1325.32 671.832C1357.53 651.216 1402.65 642.288 1440.72 651.653C1478.18 660.845 1504.32 685.207 1528.52 708.485L1557.1 735.992H1273.87C1282.06 711.45 1299.6 688.329 1325.32 671.832Z" fill="url(#paint3_linear_419:48)"/>
<path d="M1365.8 694.298C1377.4 687.587 1390.92 684.934 1405.96 686.417C1451.56 690.888 1497.25 716.413 1526.41 736H1517C1488.18 717.319 1446 694.852 1404.89 690.818C1391.4 689.499 1379.38 691.84 1369.1 697.787C1354.43 706.261 1344.79 721.072 1338.31 736.023H1332.35C1339.16 719.948 1349.54 703.702 1365.8 694.298Z" fill="white"/>
</g>
<g clip-path="url(#clip3_419:48)">
<g opacity="0.35">
<path opacity="0.35" d="M164.162 477.507C198.588 470.809 209.241 418.082 243.989 413.314C258.812 411.275 273.555 419.478 283.243 430.842C292.931 442.207 298.584 456.41 304.04 470.323C309.897 485.154 315.762 500.471 314.922 516.337C314.081 532.203 304.519 548.775 289.069 552.508C274.553 556.021 257.084 548.218 245.41 557.519C235.691 565.252 236.484 580.515 241.571 591.84C246.659 603.165 255.043 613.015 258.317 624.991C260.16 631.737 260.276 638.837 258.653 645.638C257.03 652.44 253.72 658.725 249.029 663.914C244.338 669.103 238.416 673.031 231.807 675.335C225.199 677.639 218.117 678.245 211.212 677.099C205.073 676.079 198.91 673.687 192.818 674.942C182.776 677.005 177.194 688.228 176.637 698.47C176.08 708.713 178.992 718.862 178.906 729.057C178.662 754.578 158.58 777.314 134.29 785.22C109.999 793.125 82.843 787.988 60.2562 776.067C37.6693 764.146 19.0236 745.99 1.99514 726.963C-21.8086 700.361 -43.9322 669.632 -47.6692 634.167C-51.4062 598.702 -30.311 558.508 4.8764 552.39C22.9333 549.253 44.633 554.178 57.4063 541.018C74.2699 523.662 59.7616 490.04 77.0334 473.013C87.8362 462.355 105.626 464.159 120.064 468.833C134.502 473.507 149.261 480.448 164.162 477.507Z" fill="url(#paint4_linear_419:48)"/>
<path opacity="0.35" d="M251.502 480.087C249.932 482.205 112.786 667.954 -85 747.59L-82.7311 753.621C116.939 673.24 255.161 486.017 256.723 483.875L251.502 480.087Z" fill="white"/>
<path opacity="0.35" d="M218.801 614.223L122.221 618.671L122.518 625.111L219.098 620.663L218.801 614.223Z" fill="white"/>
<path opacity="0.35" d="M111.511 524.923L75.0801 654.833L81.2942 656.572L117.725 526.662L111.511 524.923Z" fill="white"/>
<path opacity="0.35" d="M143.797 715.121L32.2446 692.165L26.592 583.173L20.1465 583.511L26.0582 697.474L142.486 721.434L143.797 715.121Z" fill="white"/>
</g>
</g>
<g clip-path="url(#clip4_419:48)">
<path opacity="0.14" d="M1605.42 108.013C1597.02 103.207 1586.97 101.81 1577.28 102.379C1567.58 102.948 1558.11 105.381 1548.74 107.823C1549.88 105.396 1550.2 102.667 1549.63 100.049C1549.07 97.4303 1547.66 95.0629 1545.61 93.3031C1543.48 91.6401 1540.86 90.7037 1538.15 90.6352C1535.43 90.5667 1532.77 91.3699 1530.56 92.9235C1526.53 82.8038 1520.45 71.8471 1509.75 69.4401C1501.71 67.637 1493.17 71.5883 1487.71 77.6274C1482.24 83.6665 1479.37 91.6036 1477.44 99.4889C1474.88 97.1952 1471.73 95.6435 1468.33 95.0053C1464.93 94.3672 1461.42 94.6676 1458.19 95.8733C1454.95 97.079 1452.12 99.1429 1450 101.837C1447.89 104.53 1446.57 107.749 1446.19 111.136C1441.4 106.615 1435.77 102.344 1429.22 101.637C1420.97 100.748 1414.13 107.133 1413.12 114.923C1411.99 123.697 1418.97 132.393 1426.49 136.189C1427.06 136.483 1427.63 136.75 1428.24 137H1602.76C1606.02 135.862 1609.35 134.929 1612.73 134.205C1613.31 133.704 1613.84 133.155 1614.33 132.566C1617.49 128.727 1617.71 123.076 1615.7 118.521C1613.68 113.965 1609.77 110.497 1605.42 108.013Z" fill="url(#paint5_linear_419:48)"/>
</g>
<g clip-path="url(#clip5_419:48)">
<path opacity="0.14" d="M1040.76 77.228C1036.23 74.6133 1030.81 73.8528 1025.58 74.1626C1020.35 74.4724 1015.25 75.7962 1010.19 77.1247C1010.81 75.804 1010.98 74.3196 1010.68 72.8948C1010.37 71.4699 1009.61 70.1818 1008.51 69.2243C1007.36 68.3194 1005.95 67.8099 1004.48 67.7726C1003.02 67.7354 1001.58 68.1724 1000.39 69.0177C998.218 63.5114 994.94 57.5497 989.17 56.24C984.835 55.2589 980.231 57.4089 977.285 60.6948C974.338 63.9808 972.789 68.2995 971.746 72.59C970.367 71.342 968.667 70.4977 966.836 70.1505C965.004 69.8033 963.111 69.9667 961.367 70.6227C959.623 71.2788 958.095 72.4018 956.953 73.8675C955.812 75.3332 955.1 77.0844 954.897 78.9273C952.315 76.4675 949.278 74.1438 945.746 73.7589C941.298 73.2754 937.61 76.7491 937.067 80.988C936.458 85.7621 940.221 90.4939 944.273 92.5593C944.58 92.7189 944.891 92.8645 945.217 93.0006H1039.32C1041.08 92.3816 1042.87 91.8736 1044.7 91.4797C1045.01 91.2069 1045.3 90.9086 1045.56 90.5878C1047.27 88.4988 1047.38 85.4241 1046.3 82.9455C1045.21 80.467 1043.1 78.5799 1040.76 77.228Z" fill="url(#paint6_linear_419:48)"/>
</g>
<defs>
<linearGradient id="paint0_linear_419:48" x1="536" y1="30.0003" x2="713" y2="30.0003" gradientUnits="userSpaceOnUse">
<stop stop-color="#81CCE3"/>
<stop offset="0.23" stop-color="#68C1D7"/>
<stop offset="0.72" stop-color="#27A4B9"/>
<stop offset="1" stop-color="#0093A7"/>
</linearGradient>
<linearGradient id="paint1_linear_419:48" x1="1101" y1="49.0007" x2="1192" y2="49.0007" gradientUnits="userSpaceOnUse">
<stop stop-color="#81CCE3"/>
<stop offset="0.23" stop-color="#68C1D7"/>
<stop offset="0.72" stop-color="#27A4B9"/>
<stop offset="1" stop-color="#0093A7"/>
</linearGradient>
<linearGradient id="paint2_linear_419:48" x1="1687.55" y1="544.004" x2="1480.6" y2="544.004" gradientUnits="userSpaceOnUse">
<stop stop-color="#82CDE4"/>
<stop offset="0.23" stop-color="#69C2D8"/>
<stop offset="0.72" stop-color="#28A6BA"/>
<stop offset="1" stop-color="#0094A7"/>
</linearGradient>
<linearGradient id="paint3_linear_419:48" x1="1558.41" y1="691.981" x2="1273.39" y2="691.981" gradientUnits="userSpaceOnUse">
<stop stop-color="#E71A80"/>
<stop offset="1" stop-color="#EC6588"/>
</linearGradient>
<linearGradient id="paint4_linear_419:48" x1="202.405" y1="755.192" x2="92.3803" y2="459.395" gradientUnits="userSpaceOnUse">
<stop stop-color="#F9C8C3"/>
<stop offset="1" stop-color="#FCE4E2"/>
</linearGradient>
<linearGradient id="paint5_linear_419:48" x1="1413" y1="103" x2="1617" y2="103" gradientUnits="userSpaceOnUse">
<stop stop-color="#81CCE3"/>
<stop offset="0.23" stop-color="#68C1D7"/>
<stop offset="0.72" stop-color="#27A4B9"/>
<stop offset="1" stop-color="#0093A7"/>
</linearGradient>
<linearGradient id="paint6_linear_419:48" x1="937.001" y1="74.5006" x2="1047" y2="74.5006" gradientUnits="userSpaceOnUse">
<stop stop-color="#81CCE3"/>
<stop offset="0.23" stop-color="#68C1D7"/>
<stop offset="0.72" stop-color="#27A4B9"/>
<stop offset="1" stop-color="#0093A7"/>
</linearGradient>
<clipPath id="clip0_419:48">
<rect width="177" height="60" fill="white" transform="translate(536)"/>
</clipPath>
<clipPath id="clip1_419:48">
<rect width="91" height="30" fill="white" transform="translate(1101 34)"/>
</clipPath>
<clipPath id="clip2_419:48">
<rect width="431" height="384" fill="white" transform="translate(1229 352)"/>
</clipPath>
<clipPath id="clip3_419:48">
<rect width="400" height="376" fill="white" transform="translate(-85 413)"/>
</clipPath>
<clipPath id="clip4_419:48">
<rect width="204" height="68" fill="white" transform="translate(1413 69)"/>
</clipPath>
<clipPath id="clip5_419:48">
<rect width="110" height="37" fill="white" transform="translate(937 56)"/>
</clipPath>
</defs>
</svg>
